<svg xmlns="http://www.w3.org/2000/svg" xmlns:xlink="http://www.w3.org/1999/xlink" width="200" zoomAndPan="magnify" viewBox="0 0 150 60" height="80" preserveAspectRatio="xMidYMid meet" version="1.0"><path fill="#131b28" d="M 69.644531 27.628906 L 69.179688 29.292969 Z M 72.03125 31.246094 L 71.519531 31.246094 Z M 71.898438 33.738281 L 68.835938 33.75 Z M 72.542969 31.25 L 72.03125 31.246094 Z M 72.167969 33.527344 L 72.703125 31.460938 Z M 83.449219 24.023438 L 82.453125 28.761719 Z M 80.894531 24.023438 L 80.136719 27.5625 Z M 80.894531 24.023438 " fill-opacity="1" fill-rule="nonzero"/><path fill="#131b28" d="M 83.277344 23.808594 L 81.152344 23.808594 C 81.035156 23.808594 80.917969 23.90625 80.890625 24.023438 L 79.382812 31.101562 C 79.359375 31.21875 79.242188 31.316406 79.121094 31.316406 L 77.617188 31.316406 C 76.128906 31.316406 76.300781 30.273438 76.605469 28.839844 L 76.613281 28.796875 L 76.648438 28.617188 C 76.652344 28.605469 76.652344 28.59375 76.65625 28.585938 L 76.722656 28.21875 L 76.796875 27.824219 C 76.816406 27.707031 76.851562 27.53125 76.875 27.421875 L 77.214844 25.722656 L 77.558594 24.023438 C 77.582031 23.90625 77.507812 23.808594 77.386719 23.808594 L 75.207031 23.808594 C 75.085938 23.808594 74.972656 23.90625 74.945312 24.023438 L 74.476562 26.28125 L 74.007812 28.535156 C 74.007812 28.539062 74.007812 28.539062 74.007812 28.539062 L 73.964844 28.75 C 73.421875 31.25 73.566406 33.636719 76.503906 33.710938 C 76.550781 33.710938 76.589844 33.710938 76.589844 33.710938 L 81.199219 33.710938 C 81.320312 33.710938 81.433594 33.617188 81.460938 33.5 L 82.453125 28.761719 L 83.449219 24.023438 C 83.472656 23.90625 83.398438 23.808594 83.277344 23.808594 Z M 91.761719 31.339844 C 91.878906 31.339844 91.957031 31.4375 91.933594 31.554688 L 91.726562 32.574219 M 91.519531 33.597656 L 91.726562 32.574219 L 91.519531 33.601562 Z M 91.261719 33.816406 C 90.636719 33.820312 88.757812 33.835938 87.34375 33.835938 C 89.0625 33.835938 91.261719 33.816406 91.261719 33.816406 Z M 86.074219 30.023438 C 86.074219 29.910156 86.199219 29.71875 86.316406 29.71875 L 86.050781 29.714844 C 85.929688 30.933594 86.074219 30.023438 86.074219 30.023438 Z M 86.074219 30.023438 " fill-opacity="1" fill-rule="nonzero"/><path fill="#131b28" d="M 87.535156 33.832031 C 87.523438 33.832031 87.507812 33.832031 87.496094 33.832031 C 87.507812 33.832031 87.523438 33.832031 87.535156 33.832031 Z M 91.761719 31.339844 C 91.878906 31.339844 91.957031 31.4375 91.933594 31.554688 L 91.726562 32.574219 L 91.691406 32.742188 M 88.542969 33.832031 L 88.535156 33.832031 Z M 88.019531 33.832031 L 87.992188 33.832031 Z M 87.863281 33.832031 C 87.84375 33.832031 87.828125 33.832031 87.8125 33.832031 C 87.828125 33.832031 87.84375 33.832031 87.863281 33.832031 Z M 87.699219 33.832031 L 87.65625 33.832031 Z M 87.992188 33.832031 L 87.863281 33.832031 Z M 88.535156 33.832031 C 88.363281 33.832031 88.191406 33.832031 88.023438 33.832031 C 88.191406 33.832031 88.363281 33.832031 88.535156 33.832031 Z M 91.261719 33.8125 Z M 91.519531 33.601562 L 91.691406 32.742188 Z M 87.8125 33.832031 L 87.699219 33.832031 Z M 87.496094 33.832031 L 87.34375 33.832031 Z M 87.65625 33.832031 L 87.535156 33.832031 Z M 56.554688 30.046875 L 56.882812 28.5625 L 56.507812 30.261719 L 56.144531 31.988281 L 56.460938 30.472656 C 56.484375 30.355469 56.527344 30.164062 56.554688 30.046875 Z M 60.507812 23.785156 L 58.171875 23.785156 C 58.054688 23.785156 57.9375 23.882812 57.910156 23.996094 L 57.464844 25.980469 C 57.441406 26.09375 57.515625 26.191406 57.632812 26.191406 L 59.988281 26.191406 C 60.105469 26.191406 60.222656 26.09375 60.246094 25.980469 L 60.460938 24.988281 L 60.675781 24 L 60.675781 23.996094 C 60.699219 23.882812 60.625 23.785156 60.507812 23.785156 Z M 60 27.082031 L 59.3125 30.292969 Z M 53.214844 37.722656 C 53.214844 37.722656 54.390625 37.738281 55.140625 37.738281 C 54.570312 37.738281 53.632812 37.726562 53.214844 37.722656 Z M 57.214844 27.082031 L 56.882812 28.5625 Z M 57.214844 27.082031 " fill-opacity="1" fill-rule="nonzero"/><path fill="#131b28" d="M 59.828125 26.867188 L 57.476562 26.867188 C 57.359375 26.867188 57.238281 26.964844 57.214844 27.082031 L 56.882812 28.5625 L 56.554688 30.046875 C 56.527344 30.164062 56.484375 30.355469 56.460938 30.472656 L 55.828125 33.503906 C 55.796875 33.644531 55.757812 33.785156 55.714844 33.921875 C 55.714844 33.921875 55.273438 35.25 54.535156 35.234375 C 54.503906 35.234375 54.472656 35.234375 54.441406 35.230469 L 53.800781 35.21875 C 53.683594 35.21875 53.566406 35.3125 53.539062 35.425781 L 53.292969 36.46875 L 53.050781 37.507812 C 53.023438 37.625 53.097656 37.71875 53.214844 37.722656 C 53.632812 37.726562 54.570312 37.738281 55.140625 37.738281 C 56.988281 37.738281 57.960938 36.699219 58.582031 33.714844 L 59.3125 30.292969 L 60 27.082031 C 60.023438 26.964844 59.949219 26.867188 59.828125 26.867188 Z M 93.261719 33.710938 C 93.140625 33.710938 93.066406 33.617188 93.089844 33.5 L 94.859375 25.09375 M 95.71875 33.5 L 96.4375 29.910156 Z M 95.71875 33.5 " fill-opacity="1" fill-rule="nonzero"/><path fill="#131b28" d="M 93.117188 33.605469 C 93.101562 33.546875 93.109375 33.402344 93.136719 33.285156 L 93.976562 29.296875 L 93.089844 33.5 C 93.066406 33.617188 93.140625 33.710938 93.261719 33.710938 L 93.476562 33.710938 C 93.355469 33.710938 93.128906 33.664062 93.117188 33.605469 Z M 95.582031 33.664062 C 95.515625 33.691406 95.367188 33.710938 95.25 33.710938 L 95.464844 33.710938 C 95.582031 33.710938 95.699219 33.617188 95.722656 33.5 L 95.765625 33.285156 C 95.742188 33.402344 95.644531 33.636719 95.582031 33.664062 Z M 96.078125 31.707031 L 96.394531 30.121094 C 96.394531 30.121094 96.394531 30.125 96.394531 30.125 Z M 103.0625 25.65625 L 103.160156 26.066406 C 103.1875 26.183594 103.113281 26.277344 102.996094 26.277344 M 95.761719 33.285156 L 96.078125 31.707031 Z M 102.96875 25.238281 L 103.0625 25.65625 Z M 96.394531 30.121094 C 96.417969 30.003906 96.457031 29.816406 96.480469 29.699219 L 96.820312 28.097656 L 96.4375 29.910156 Z M 94.890625 24.957031 C 94.867188 25.070312 94.835938 25.210938 94.816406 25.308594 L 93.976562 29.296875 L 94.863281 25.09375 Z M 94.890625 24.957031 " fill-opacity="1" fill-rule="nonzero"/><path fill="#131b28" d="M 103.160156 26.066406 L 103.0625 25.65625 L 102.96875 25.238281 L 102.917969 25.027344 C 102.726562 24.273438 102.167969 23.839844 100.949219 23.839844 L 99.050781 23.835938 L 95.339844 23.835938 C 95.21875 23.835938 95.101562 23.929688 95.078125 24.046875 L 94.992188 24.464844 L 94.890625 24.957031 L 94.859375 25.09375 L 93.976562 29.296875 L 93.136719 33.285156 C 93.109375 33.402344 93.101562 33.546875 93.117188 33.605469 C 93.132812 33.664062 93.355469 33.710938 93.476562 33.710938 L 95.25 33.710938 C 95.367188 33.710938 95.515625 33.691406 95.582031 33.664062 C 95.644531 33.636719 95.738281 33.402344 95.761719 33.285156 L 96.078125 31.707031 L 96.394531 30.125 L 96.394531 30.121094 L 96.4375 29.910156 L 96.820312 28.097656 L 97.15625 26.492188 C 97.183594 26.375 97.296875 26.28125 97.417969 26.28125 L 102.996094 26.277344 C 103.113281 26.277344 103.1875 26.183594 103.160156 26.066406 Z M 103.160156 26.066406 " fill-opacity="1" fill-rule="nonzero"/><path fill="#131b28" d="M 110.34375 22.371094 C 110.226562 22.371094 110.035156 22.375 109.914062 22.375 L 108.128906 22.375 C 108.011719 22.375 107.859375 22.453125 107.792969 22.554688 L 103.84375 28.417969 C 103.777344 28.515625 103.703125 28.503906 103.675781 28.386719 L 103.382812 27.09375 C 103.359375 26.976562 103.238281 26.882812 103.121094 26.882812 L 100.582031 26.882812 C 100.464844 26.882812 100.394531 26.976562 100.425781 27.089844 L 101.566406 31.128906 C 101.597656 31.246094 101.601562 31.433594 101.570312 31.550781 L 101.074219 33.507812 C 101.046875 33.621094 101.117188 33.71875 101.234375 33.71875 L 103.746094 33.71875 C 103.863281 33.71875 103.984375 33.621094 104.011719 33.507812 L 104.507812 31.550781 C 104.539062 31.433594 104.621094 31.261719 104.691406 31.167969 L 111.101562 22.539062 C 111.175781 22.445312 111.136719 22.367188 111.019531 22.367188 Z M 90.175781 27.433594 L 90.175781 27.429688 C 90.160156 27.558594 90.039062 27.65625 89.921875 27.65625 L 86.703125 27.65625 C 86.59375 27.65625 86.535156 27.578125 86.550781 27.484375 C 86.554688 27.480469 86.554688 27.476562 86.554688 27.476562 C 86.554688 27.472656 86.554688 27.46875 86.554688 27.464844 L 86.570312 27.410156 C 86.878906 26.582031 87.503906 26.039062 88.679688 26.039062 C 90.003906 26.039062 90.265625 26.695312 90.175781 27.433594 Z M 89.230469 23.664062 C 85.097656 23.664062 84.117188 26.207031 83.570312 28.773438 C 83.019531 31.390625 83.066406 33.832031 87.34375 33.832031 L 87.496094 33.832031 C 87.507812 33.832031 87.523438 33.832031 87.535156 33.832031 L 87.8125 33.832031 C 87.828125 33.832031 87.84375 33.832031 87.863281 33.832031 L 88.019531 33.832031 C 88.191406 33.832031 88.363281 33.832031 88.535156 33.832031 L 88.542969 33.832031 C 89.671875 33.828125 90.804688 33.816406 91.261719 33.816406 C 91.378906 33.8125 91.496094 33.71875 91.519531 33.601562 L 91.691406 32.742188 L 91.726562 32.574219 L 91.933594 31.554688 C 91.957031 31.4375 91.878906 31.339844 91.761719 31.339844 L 87.917969 31.339844 C 86.386719 31.339844 85.933594 30.929688 86.101562 29.71875 L 92.246094 29.71875 C 92.246094 29.71875 92.246094 29.71875 92.25 29.71875 C 92.347656 29.714844 92.4375 29.648438 92.472656 29.558594 C 92.480469 29.539062 92.484375 29.519531 92.488281 29.503906 C 93.398438 26.015625 93.136719 23.664062 89.230469 23.664062 Z M 69.703125 27.417969 L 69.644531 27.628906 L 69.179688 29.292969 L 68.714844 30.960938 C 68.683594 31.074219 68.5625 31.171875 68.441406 31.171875 L 65.988281 31.171875 C 64.125 31.171875 63.671875 29.695312 64.125 27.515625 C 64.578125 25.289062 65.464844 23.902344 67.300781 23.761719 C 69.804688 23.570312 70.304688 25.355469 69.703125 27.417969 Z M 71.386719 31.042969 C 71.386719 31.042969 72.542969 28.191406 72.804688 26.546875 C 73.164062 24.34375 72.078125 21.148438 67.875 21.148438 C 63.695312 21.148438 61.878906 24.199219 61.1875 27.515625 C 60.492188 30.855469 61.402344 33.785156 65.558594 33.761719 L 68.835938 33.75 L 71.898438 33.738281 C 72.015625 33.738281 72.136719 33.640625 72.167969 33.527344 L 72.703125 31.460938 C 72.730469 31.347656 72.660156 31.25 72.542969 31.25 L 72.03125 31.246094 L 71.519531 31.246094 C 71.417969 31.242188 71.359375 31.179688 71.371094 31.089844 C 71.375 31.074219 71.378906 31.058594 71.386719 31.042969 Z M 71.386719 31.042969 " fill-opacity="1" fill-rule="nonzero"/><path fill="#131b28" d="M 92.078125 29.136719 C 92.078125 29.230469 92.03125 29.277344 91.933594 29.277344 C 91.839844 29.277344 91.792969 29.230469 91.792969 29.136719 C 91.792969 29.054688 91.859375 28.992188 91.933594 28.992188 C 92.011719 28.992188 92.078125 29.054688 92.078125 29.136719 Z M 92.078125 29.136719 " fill-opacity="1" fill-rule="nonzero"/><path fill="#0868ac" d="M 39.46875 25.429688 C 38.316406 27.109375 38.460938 29.296875 39.339844 31.085938 C 39.363281 31.128906 39.382812 31.171875 39.40625 31.210938 C 39.421875 31.238281 39.433594 31.265625 39.449219 31.292969 C 39.457031 31.308594 39.464844 31.324219 39.472656 31.339844 C 39.488281 31.367188 39.503906 31.394531 39.519531 31.421875 C 39.546875 31.472656 39.574219 31.519531 39.601562 31.570312 C 39.621094 31.59375 39.636719 31.621094 39.652344 31.648438 C 39.683594 31.699219 39.714844 31.753906 39.75 31.804688 C 39.761719 31.824219 39.777344 31.847656 39.789062 31.867188 C 39.835938 31.9375 39.882812 32.007812 39.933594 32.074219 C 39.933594 32.078125 39.933594 32.078125 39.9375 32.082031 C 39.945312 32.09375 39.953125 32.101562 39.960938 32.113281 C 40.015625 32.195312 40.078125 32.273438 40.136719 32.351562 C 40.191406 32.417969 40.246094 32.488281 40.300781 32.554688 C 40.355469 32.617188 40.410156 32.683594 40.46875 32.746094 L 40.472656 32.75 C 40.472656 32.753906 40.476562 32.753906 40.476562 32.757812 C 40.550781 32.835938 40.625 32.914062 40.699219 32.992188 C 40.746094 33.035156 40.789062 33.082031 40.835938 33.125 C 40.855469 33.144531 40.871094 33.160156 40.890625 33.179688 C 40.949219 33.238281 41.011719 33.292969 41.074219 33.347656 L 41.078125 33.351562 C 41.089844 33.359375 41.097656 33.371094 41.109375 33.378906 C 41.164062 33.429688 41.222656 33.476562 41.277344 33.523438 C 41.300781 33.542969 41.324219 33.558594 41.347656 33.578125 C 41.394531 33.617188 41.441406 33.652344 41.488281 33.691406 L 41.5625 33.746094 C 41.613281 33.785156 41.664062 33.824219 41.71875 33.863281 C 41.738281 33.875 41.757812 33.890625 41.777344 33.902344 C 41.78125 33.90625 41.785156 33.910156 41.792969 33.914062 C 41.839844 33.949219 41.890625 33.984375 41.945312 34.015625 C 41.964844 34.03125 41.988281 34.046875 42.007812 34.0625 C 42.085938 34.109375 42.167969 34.160156 42.246094 34.207031 L 42.3125 34.246094 C 42.371094 34.28125 42.433594 34.316406 42.492188 34.347656 C 42.523438 34.367188 42.558594 34.382812 42.589844 34.398438 C 42.632812 34.421875 42.675781 34.445312 42.71875 34.46875 C 42.730469 34.472656 42.738281 34.476562 42.75 34.480469 C 42.765625 34.492188 42.785156 34.5 42.800781 34.507812 C 42.867188 34.539062 42.9375 34.570312 43.003906 34.601562 L 43.046875 34.621094 C 43.144531 34.664062 43.242188 34.707031 43.34375 34.746094 C 43.414062 34.773438 43.492188 34.800781 43.566406 34.828125 L 43.59375 34.839844 C 43.675781 34.867188 43.757812 34.894531 43.84375 34.921875 C 43.863281 34.925781 43.882812 34.933594 43.902344 34.941406 C 43.988281 34.964844 44.074219 34.996094 44.160156 35.011719 C 49.742188 36.046875 51.363281 31.613281 51.363281 31.613281 C 50 33.410156 47.585938 33.886719 45.292969 33.359375 C 45.207031 33.335938 45.125 33.308594 45.039062 33.285156 C 44.933594 33.253906 44.832031 33.21875 44.730469 33.183594 L 44.695312 33.171875 C 44.621094 33.144531 44.550781 33.117188 44.476562 33.089844 L 44.417969 33.066406 C 44.339844 33.035156 44.261719 33 44.183594 32.96875 C 44.167969 32.960938 44.152344 32.953125 44.136719 32.945312 C 44.070312 32.917969 44.003906 32.886719 43.9375 32.851562 L 43.882812 32.824219 C 43.832031 32.800781 43.78125 32.773438 43.730469 32.746094 C 43.695312 32.730469 43.660156 32.710938 43.625 32.691406 C 43.566406 32.660156 43.503906 32.625 43.445312 32.589844 C 43.421875 32.578125 43.402344 32.566406 43.382812 32.554688 C 43.300781 32.503906 43.222656 32.457031 43.144531 32.40625 C 43.121094 32.390625 43.101562 32.375 43.078125 32.363281 C 43.019531 32.324219 42.964844 32.285156 42.910156 32.246094 C 42.890625 32.234375 42.871094 32.222656 42.855469 32.207031 C 42.777344 32.152344 42.699219 32.09375 42.621094 32.035156 C 42.550781 31.980469 42.480469 31.925781 42.414062 31.871094 C 42.351562 31.820312 42.292969 31.765625 42.234375 31.714844 L 42.214844 31.699219 C 42.148438 31.640625 42.085938 31.582031 42.023438 31.523438 C 42.003906 31.507812 41.988281 31.488281 41.96875 31.472656 C 41.925781 31.425781 41.878906 31.382812 41.832031 31.335938 C 41.816406 31.316406 41.796875 31.300781 41.78125 31.28125 C 41.722656 31.222656 41.667969 31.164062 41.613281 31.101562 L 41.605469 31.09375 C 41.53125 31.011719 41.460938 30.929688 41.390625 30.84375 C 41.347656 30.792969 41.308594 30.742188 41.269531 30.691406 C 41.253906 30.671875 41.238281 30.652344 41.222656 30.636719 C 41.175781 30.570312 41.128906 30.507812 41.082031 30.445312 C 39.8125 28.6875 39.355469 26.261719 40.371094 24.269531 " fill-opacity="1" fill-rule="nonzero"/><path fill="#0868ac" d="M 43.054688 24.011719 C 42.21875 25.230469 42.261719 26.859375 42.914062 28.148438 C 43.023438 28.363281 43.148438 28.574219 43.285156 28.773438 C 43.410156 28.953125 43.546875 29.171875 43.714844 29.316406 C 43.773438 29.382812 43.835938 29.449219 43.902344 29.511719 C 43.917969 29.53125 43.933594 29.546875 43.949219 29.5625 C 44.011719 29.625 44.074219 29.683594 44.140625 29.742188 C 44.144531 29.746094 44.144531 29.746094 44.148438 29.75 C 44.148438 29.75 44.152344 29.75 44.152344 29.75 C 44.222656 29.816406 44.296875 29.878906 44.375 29.9375 C 44.390625 29.953125 44.40625 29.964844 44.425781 29.980469 C 44.5 30.039062 44.578125 30.097656 44.660156 30.152344 L 44.664062 30.15625 C 44.699219 30.183594 44.738281 30.203125 44.773438 30.230469 C 44.789062 30.238281 44.804688 30.25 44.824219 30.261719 C 44.878906 30.300781 44.9375 30.335938 44.996094 30.371094 C 45.003906 30.375 45.011719 30.378906 45.019531 30.382812 C 45.070312 30.414062 45.121094 30.441406 45.171875 30.472656 C 45.191406 30.480469 45.210938 30.492188 45.226562 30.5 C 45.261719 30.519531 45.300781 30.539062 45.335938 30.554688 C 45.339844 30.558594 45.347656 30.5625 45.351562 30.5625 C 45.425781 30.601562 45.5 30.636719 45.574219 30.667969 C 45.589844 30.675781 45.609375 30.683594 45.625 30.691406 C 45.683594 30.714844 45.746094 30.742188 45.808594 30.765625 C 45.890625 30.796875 45.972656 30.824219 46.054688 30.855469 C 46.078125 30.863281 46.105469 30.871094 46.128906 30.878906 C 46.210938 30.902344 46.289062 30.933594 46.375 30.949219 C 50.683594 31.671875 51.675781 28.308594 51.675781 28.308594 C 50.78125 29.621094 49.042969 30.242188 47.191406 29.757812 C 47.109375 29.734375 47.027344 29.710938 46.945312 29.683594 C 46.921875 29.675781 46.898438 29.667969 46.875 29.660156 C 46.816406 29.640625 46.757812 29.621094 46.703125 29.601562 C 46.675781 29.589844 46.652344 29.582031 46.625 29.570312 C 46.5625 29.546875 46.503906 29.523438 46.441406 29.496094 C 46.425781 29.488281 46.410156 29.484375 46.390625 29.476562 C 46.316406 29.441406 46.242188 29.40625 46.167969 29.371094 C 46.128906 29.351562 46.09375 29.332031 46.054688 29.3125 L 45.988281 29.277344 C 45.941406 29.25 45.894531 29.222656 45.847656 29.195312 C 45.835938 29.191406 45.824219 29.183594 45.8125 29.175781 C 45.753906 29.140625 45.695312 29.105469 45.640625 29.070312 C 45.621094 29.058594 45.605469 29.046875 45.589844 29.035156 C 45.550781 29.007812 45.511719 28.984375 45.476562 28.960938 C 45.398438 28.902344 45.320312 28.847656 45.242188 28.785156 C 45.226562 28.773438 45.207031 28.757812 45.191406 28.746094 C 44.378906 28.09375 43.738281 27.207031 43.429688 26.203125 C 43.109375 25.160156 43.179688 23.988281 43.734375 23.039062 " fill-opacity="1" fill-rule="nonzero"/><path fill="#0868ac" d="M 46.066406 22.953125 C 45.574219 23.6875 45.527344 24.601562 45.867188 25.410156 C 46.226562 26.269531 46.964844 26.945312 47.824219 27.265625 C 47.859375 27.28125 47.898438 27.292969 47.933594 27.304688 C 47.949219 27.308594 47.964844 27.3125 47.980469 27.320312 C 48.03125 27.335938 48.082031 27.355469 48.132812 27.363281 C 50.511719 27.828125 51.15625 26.125 51.328125 25.875 C 50.765625 26.699219 49.8125 26.898438 48.648438 26.613281 C 48.554688 26.585938 48.460938 26.558594 48.367188 26.523438 C 48.253906 26.484375 48.140625 26.433594 48.03125 26.382812 C 47.824219 26.28125 47.628906 26.160156 47.445312 26.019531 C 46.402344 25.21875 45.753906 23.6875 46.433594 22.441406 M 72.863281 37.25 L 72.179688 38.832031 L 71.421875 38.832031 L 71.484375 37.394531 L 70.925781 38.832031 L 70.191406 38.832031 L 70.171875 37.25 L 70.253906 36.859375 L 70.773438 36.859375 L 70.671875 38.421875 L 71.25 36.859375 L 71.972656 36.859375 L 71.921875 38.441406 L 72.492188 36.859375 L 72.945312 36.859375 Z M 74.058594 37.71875 C 74.125 37.410156 74.105469 37.351562 73.949219 37.351562 L 73.710938 37.351562 L 73.558594 38.078125 L 73.324219 38.832031 L 72.882812 38.832031 L 73.246094 37.117188 L 73.296875 36.863281 L 73.703125 36.863281 L 73.753906 36.980469 C 73.753906 36.980469 73.988281 36.839844 74.214844 36.839844 C 74.703125 36.839844 74.664062 37.210938 74.558594 37.71875 Z M 75.496094 36.613281 C 75.300781 36.613281 75.179688 36.554688 75.226562 36.3125 C 75.277344 36.070312 75.429688 36.015625 75.621094 36.015625 C 75.8125 36.015625 75.941406 36.070312 75.886719 36.3125 C 75.839844 36.550781 75.6875 36.613281 75.496094 36.613281 Z M 75.289062 38.832031 L 74.847656 38.832031 L 74.933594 38.0625 L 75.085938 37.347656 L 74.78125 37.277344 L 74.867188 36.859375 L 75.703125 36.859375 Z M 77.1875 37.277344 L 76.640625 37.347656 L 76.484375 38.097656 C 76.441406 38.308594 76.441406 38.363281 76.621094 38.363281 L 76.988281 38.363281 L 76.910156 38.761719 C 76.910156 38.761719 76.578125 38.863281 76.433594 38.863281 C 75.875 38.863281 75.878906 38.546875 75.976562 38.078125 L 76.128906 37.339844 L 75.824219 37.273438 L 75.917969 36.855469 L 76.234375 36.855469 L 76.417969 36.355469 L 76.851562 36.355469 L 76.746094 36.855469 L 77.277344 36.855469 Z M 78.324219 37.304688 C 78.070312 37.304688 77.933594 37.4375 77.882812 37.679688 L 78.617188 37.617188 C 78.648438 37.453125 78.617188 37.304688 78.324219 37.304688 Z M 77.8125 38.035156 C 77.777344 38.277344 77.867188 38.359375 78.171875 38.359375 L 78.941406 38.359375 L 78.863281 38.726562 C 78.863281 38.726562 78.402344 38.859375 78.058594 38.859375 C 77.207031 38.859375 77.199219 38.371094 77.308594 37.847656 C 77.417969 37.335938 77.613281 36.832031 78.433594 36.832031 C 79.230469 36.832031 79.269531 37.316406 79.074219 38.035156 Z M 80.820312 38.832031 L 80.382812 38.832031 L 80.46875 38.0625 L 80.777344 36.59375 L 80.472656 36.519531 L 80.5625 36.101562 L 81.398438 36.101562 Z M 82.402344 37.304688 C 82.144531 37.304688 82.011719 37.4375 81.960938 37.679688 L 82.695312 37.617188 C 82.726562 37.453125 82.695312 37.304688 82.402344 37.304688 Z M 81.890625 38.035156 C 81.855469 38.277344 81.945312 38.359375 82.25 38.359375 L 83.019531 38.359375 L 82.941406 38.726562 C 82.941406 38.726562 82.480469 38.859375 82.136719 38.859375 C 81.285156 38.859375 81.273438 38.371094 81.382812 37.847656 C 81.492188 37.335938 81.6875 36.832031 82.511719 36.832031 C 83.308594 36.832031 83.347656 37.316406 83.152344 38.035156 Z M 85.160156 37.328125 C 85.160156 37.328125 84.601562 37.332031 84.449219 37.332031 C 84.125 37.332031 84.09375 37.433594 84.070312 37.539062 L 84.050781 37.636719 L 85.078125 37.714844 C 85.078125 37.714844 85.085938 38.046875 85.042969 38.234375 C 84.980469 38.546875 84.660156 38.867188 84.085938 38.867188 C 83.796875 38.867188 83.335938 38.757812 83.335938 38.757812 L 83.417969 38.375 L 84.125 38.375 C 84.441406 38.375 84.484375 38.289062 84.503906 38.199219 L 84.527344 38.074219 L 83.515625 38 C 83.515625 38 83.480469 37.742188 83.53125 37.488281 C 83.609375 37.140625 83.921875 36.839844 84.5 36.839844 C 84.785156 36.839844 85.246094 36.945312 85.246094 36.945312 Z M 87.074219 37.328125 C 87.074219 37.328125 86.519531 37.332031 86.367188 37.332031 C 86.042969 37.332031 86.007812 37.433594 85.984375 37.539062 L 85.964844 37.636719 L 86.996094 37.714844 C 86.996094 37.714844 87 38.046875 86.957031 38.234375 C 86.894531 38.546875 86.574219 38.867188 86 38.867188 C 85.714844 38.867188 85.25 38.757812 85.25 38.757812 L 85.332031 38.375 L 86.042969 38.375 C 86.355469 38.375 86.398438 38.289062 86.417969 38.199219 L 86.441406 38.074219 L 85.433594 38 C 85.433594 38 85.394531 37.742188 85.445312 37.488281 C 85.523438 37.140625 85.835938 36.839844 86.414062 36.839844 C 86.699219 36.839844 87.160156 36.945312 87.160156 36.945312 Z M 87.675781 39.148438 L 87.292969 39.148438 L 87.308594 38.859375 C 87.171875 38.847656 87.097656 38.746094 87.132812 38.578125 C 87.183594 38.335938 87.332031 38.277344 87.527344 38.277344 C 87.71875 38.277344 87.847656 38.335938 87.792969 38.578125 Z M 90.222656 37.347656 C 89.9375 37.347656 89.835938 37.519531 89.769531 37.839844 C 89.703125 38.15625 89.722656 38.347656 90.007812 38.347656 L 90.402344 38.347656 L 90.621094 37.347656 Z M 90.875 38.578125 L 90.824219 38.832031 L 90.421875 38.828125 L 90.367188 38.703125 C 90.367188 38.703125 90.011719 38.859375 89.773438 38.859375 C 89.164062 38.859375 89.136719 38.351562 89.246094 37.839844 C 89.355469 37.316406 89.59375 36.824219 90.199219 36.824219 C 90.417969 36.824219 90.714844 36.9375 90.714844 36.9375 L 90.957031 36.101562 L 91.394531 36.101562 Z M 92.453125 37.328125 C 92.082031 37.328125 91.960938 37.539062 91.894531 37.847656 C 91.832031 38.164062 91.859375 38.375 92.226562 38.375 C 92.609375 38.375 92.722656 38.167969 92.789062 37.847656 C 92.855469 37.550781 92.835938 37.328125 92.453125 37.328125 Z M 92.128906 38.863281 C 91.34375 38.863281 91.28125 38.367188 91.386719 37.847656 C 91.496094 37.332031 91.769531 36.839844 92.554688 36.839844 C 93.335938 36.839844 93.410156 37.332031 93.300781 37.847656 C 93.191406 38.375 92.914062 38.863281 92.128906 38.863281 Z M 96.585938 38.832031 L 96.671875 38.070312 L 96.714844 37.851562 C 96.777344 37.5625 96.816406 37.351562 96.515625 37.351562 L 96.28125 37.351562 C 96.289062 37.5 96.261719 37.671875 96.222656 37.847656 L 96.019531 38.832031 L 95.578125 38.832031 L 95.664062 38.070312 L 95.703125 37.851562 C 95.765625 37.5625 95.804688 37.351562 95.503906 37.351562 L 95.3125 37.351562 L 95 38.832031 L 94.492188 38.832031 L 94.90625 36.859375 L 95.304688 36.859375 L 95.367188 36.980469 C 95.367188 36.980469 95.636719 36.835938 95.855469 36.835938 C 96.023438 36.835938 96.148438 36.910156 96.191406 37.007812 C 96.285156 36.957031 96.558594 36.835938 96.753906 36.835938 C 97.363281 36.835938 97.34375 37.335938 97.234375 37.847656 L 97.027344 38.832031 Z M 98.609375 37.328125 C 98.238281 37.328125 98.121094 37.539062 98.054688 37.847656 C 97.992188 38.164062 98.019531 38.375 98.386719 38.375 C 98.765625 38.375 98.882812 38.167969 98.949219 37.847656 C 99.015625 37.550781 98.996094 37.328125 98.609375 37.328125 Z M 98.285156 38.863281 C 97.5 38.863281 97.4375 38.367188 97.542969 37.847656 C 97.652344 37.332031 97.929688 36.839844 98.714844 36.839844 C 99.496094 36.839844 99.566406 37.332031 99.457031 37.847656 C 99.347656 38.375 99.070312 38.863281 98.285156 38.863281 Z M 100.78125 37.71875 C 100.847656 37.410156 100.828125 37.351562 100.671875 37.351562 L 100.433594 37.351562 L 100.28125 38.078125 L 100.046875 38.832031 L 99.605469 38.832031 L 99.964844 37.117188 L 100.019531 36.863281 L 100.425781 36.863281 L 100.476562 36.980469 C 100.476562 36.980469 100.710938 36.839844 100.9375 36.839844 C 101.425781 36.839844 101.386719 37.210938 101.28125 37.71875 Z M 102.488281 37.304688 C 102.230469 37.304688 102.097656 37.4375 102.042969 37.679688 L 102.777344 37.617188 C 102.8125 37.453125 102.777344 37.304688 102.488281 37.304688 Z M 101.972656 38.035156 C 101.941406 38.277344 102.03125 38.359375 102.335938 38.359375 L 103.101562 38.359375 L 103.023438 38.726562 C 103.023438 38.726562 102.5625 38.859375 102.21875 38.859375 C 101.367188 38.859375 101.359375 38.371094 101.46875 37.847656 C 101.578125 37.335938 101.773438 36.832031 102.597656 36.832031 C 103.390625 36.832031 103.429688 37.316406 103.234375 38.035156 Z M 103.664062 38.863281 C 103.460938 38.863281 103.339844 38.804688 103.390625 38.570312 C 103.4375 38.328125 103.585938 38.269531 103.785156 38.269531 C 103.972656 38.269531 104.101562 38.328125 104.054688 38.570312 C 104 38.800781 103.847656 38.863281 103.664062 38.863281 Z M 103.664062 38.863281 " fill-opacity="1" fill-rule="nonzero"/></svg>